<mxfile host="app.diagrams.net" modified="2023-07-27T00:43:21.804Z" agent="Mozilla/5.0 (Windows NT 10.0; Win64; x64; rv:109.0) Gecko/20100101 Firefox/115.0" etag="NMQCrdktACWhujK0cveR" version="21.6.5" type="device">
  <diagram name="第 1 页" id="TzsZopuotmsDc7JSZWWU">
    <mxGraphModel dx="794" dy="433" grid="1" gridSize="10" guides="1" tooltips="1" connect="1" arrows="1" fold="1" page="1" pageScale="1" pageWidth="827" pageHeight="1169" math="0" shadow="0">
      <root>
        <mxCell id="0" />
        <mxCell id="1" parent="0" />
        <mxCell id="MHkQ5VVJ9KEJT1Ca361s-16" style="edgeStyle=orthogonalEdgeStyle;rounded=0;orthogonalLoop=1;jettySize=auto;html=1;exitX=1;exitY=0.5;exitDx=0;exitDy=0;exitPerimeter=0;" parent="1" source="MHkQ5VVJ9KEJT1Ca361s-1" edge="1">
          <mxGeometry relative="1" as="geometry">
            <mxPoint x="220" y="162" as="targetPoint" />
          </mxGeometry>
        </mxCell>
        <mxCell id="MHkQ5VVJ9KEJT1Ca361s-1" value="" style="shape=mxgraph.signs.tech.camera_1;html=1;pointerEvents=1;fillColor=#000000;strokeColor=none;verticalLabelPosition=bottom;verticalAlign=top;align=center;" parent="1" vertex="1">
          <mxGeometry x="80" y="120" width="98" height="84" as="geometry" />
        </mxCell>
        <mxCell id="MHkQ5VVJ9KEJT1Ca361s-8" style="edgeStyle=orthogonalEdgeStyle;rounded=0;orthogonalLoop=1;jettySize=auto;html=1;exitX=1;exitY=0.5;exitDx=0;exitDy=0;" parent="1" source="MHkQ5VVJ9KEJT1Ca361s-2" edge="1">
          <mxGeometry relative="1" as="geometry">
            <mxPoint x="220" y="45" as="targetPoint" />
          </mxGeometry>
        </mxCell>
        <mxCell id="MHkQ5VVJ9KEJT1Ca361s-2" value="" style="image;aspect=fixed;perimeter=ellipsePerimeter;html=1;align=center;shadow=0;dashed=0;spacingTop=3;image=img/lib/active_directory/cd_dvd.svg;" parent="1" vertex="1">
          <mxGeometry x="90" y="20" width="50" height="50" as="geometry" />
        </mxCell>
        <mxCell id="MHkQ5VVJ9KEJT1Ca361s-3" value="摄像头" style="text;html=1;strokeColor=none;fillColor=none;align=center;verticalAlign=middle;whiteSpace=wrap;rounded=0;" parent="1" vertex="1">
          <mxGeometry x="85" y="220" width="60" height="30" as="geometry" />
        </mxCell>
        <mxCell id="MHkQ5VVJ9KEJT1Ca361s-6" value="视频文件" style="text;html=1;strokeColor=none;fillColor=none;align=center;verticalAlign=middle;whiteSpace=wrap;rounded=0;" parent="1" vertex="1">
          <mxGeometry x="85" y="80" width="60" height="30" as="geometry" />
        </mxCell>
        <mxCell id="Ra0Va-L7WyhxJLXhkpGg-2" style="rounded=0;orthogonalLoop=1;jettySize=auto;html=1;entryX=0;entryY=0.25;entryDx=0;entryDy=0;" parent="1" source="MHkQ5VVJ9KEJT1Ca361s-7" target="MHkQ5VVJ9KEJT1Ca361s-17" edge="1">
          <mxGeometry relative="1" as="geometry" />
        </mxCell>
        <mxCell id="MHkQ5VVJ9KEJT1Ca361s-7" value="" style="html=1;verticalLabelPosition=bottom;align=center;labelBackgroundColor=#ffffff;verticalAlign=top;strokeWidth=2;strokeColor=#0080F0;shadow=0;dashed=0;shape=mxgraph.ios7.icons.tools;pointerEvents=1" parent="1" vertex="1">
          <mxGeometry x="240" y="31" width="29.7" height="29.7" as="geometry" />
        </mxCell>
        <mxCell id="MHkQ5VVJ9KEJT1Ca361s-11" value="FFmpeg" style="text;html=1;strokeColor=none;fillColor=none;align=center;verticalAlign=middle;whiteSpace=wrap;rounded=0;" parent="1" vertex="1">
          <mxGeometry x="224.85" y="80" width="60" height="30" as="geometry" />
        </mxCell>
        <mxCell id="Ra0Va-L7WyhxJLXhkpGg-1" style="rounded=0;orthogonalLoop=1;jettySize=auto;html=1;exitX=1;exitY=0.5;exitDx=0;exitDy=0;exitPerimeter=0;entryX=0;entryY=0.75;entryDx=0;entryDy=0;" parent="1" source="MHkQ5VVJ9KEJT1Ca361s-12" target="MHkQ5VVJ9KEJT1Ca361s-17" edge="1">
          <mxGeometry relative="1" as="geometry" />
        </mxCell>
        <mxCell id="MHkQ5VVJ9KEJT1Ca361s-12" value="" style="outlineConnect=0;dashed=0;verticalLabelPosition=bottom;verticalAlign=top;align=center;html=1;shape=mxgraph.aws3.aws_iot;fillColor=#5294CF;gradientColor=none;" parent="1" vertex="1">
          <mxGeometry x="221" y="123" width="67.5" height="81" as="geometry" />
        </mxCell>
        <mxCell id="MHkQ5VVJ9KEJT1Ca361s-15" value="OBS " style="text;html=1;strokeColor=none;fillColor=none;align=center;verticalAlign=middle;whiteSpace=wrap;rounded=0;" parent="1" vertex="1">
          <mxGeometry x="222.13" y="220" width="65.25" height="30" as="geometry" />
        </mxCell>
        <mxCell id="yQf0tGZ2kE2zRinCPwhf-3" style="edgeStyle=orthogonalEdgeStyle;rounded=0;orthogonalLoop=1;jettySize=auto;html=1;exitX=1;exitY=0.5;exitDx=0;exitDy=0;" edge="1" parent="1" source="MHkQ5VVJ9KEJT1Ca361s-17">
          <mxGeometry relative="1" as="geometry">
            <mxPoint x="540" y="115" as="targetPoint" />
          </mxGeometry>
        </mxCell>
        <mxCell id="MHkQ5VVJ9KEJT1Ca361s-17" value="" style="image;aspect=fixed;perimeter=ellipsePerimeter;html=1;align=center;shadow=0;dashed=0;spacingTop=3;image=img/lib/active_directory/windows_server.svg;" parent="1" vertex="1">
          <mxGeometry x="370" y="70" width="73.8" height="90" as="geometry" />
        </mxCell>
        <mxCell id="Ra0Va-L7WyhxJLXhkpGg-3" value="推流" style="text;html=1;strokeColor=none;fillColor=none;align=center;verticalAlign=middle;whiteSpace=wrap;rounded=0;" parent="1" vertex="1">
          <mxGeometry x="289" y="40" width="60" height="30" as="geometry" />
        </mxCell>
        <mxCell id="Ra0Va-L7WyhxJLXhkpGg-4" value="推流" style="text;html=1;strokeColor=none;fillColor=none;align=center;verticalAlign=middle;whiteSpace=wrap;rounded=0;" parent="1" vertex="1">
          <mxGeometry x="289" y="160" width="60" height="30" as="geometry" />
        </mxCell>
        <mxCell id="Ra0Va-L7WyhxJLXhkpGg-5" value="RTMP &lt;br&gt;服务器" style="text;html=1;strokeColor=none;fillColor=none;align=center;verticalAlign=middle;whiteSpace=wrap;rounded=0;" parent="1" vertex="1">
          <mxGeometry x="384" y="220" width="60" height="30" as="geometry" />
        </mxCell>
        <mxCell id="yQf0tGZ2kE2zRinCPwhf-2" value="" style="shape=image;html=1;verticalAlign=top;verticalLabelPosition=bottom;labelBackgroundColor=#ffffff;imageAspect=0;aspect=fixed;image=https://cdn4.iconfinder.com/data/icons/essentials-74/24/005_-_Video-128.png" vertex="1" parent="1">
          <mxGeometry x="550" y="72" width="88" height="88" as="geometry" />
        </mxCell>
        <mxCell id="yQf0tGZ2kE2zRinCPwhf-4" value="拉流" style="text;html=1;strokeColor=none;fillColor=none;align=center;verticalAlign=middle;whiteSpace=wrap;rounded=0;" vertex="1" parent="1">
          <mxGeometry x="460" y="90" width="60" height="30" as="geometry" />
        </mxCell>
        <mxCell id="yQf0tGZ2kE2zRinCPwhf-5" value="Flash播放器/流媒体播放器" style="text;html=1;strokeColor=none;fillColor=none;align=center;verticalAlign=middle;whiteSpace=wrap;rounded=0;" vertex="1" parent="1">
          <mxGeometry x="512" y="220" width="164" height="30" as="geometry" />
        </mxCell>
      </root>
    </mxGraphModel>
  </diagram>
</mxfile>
